HIERARCHY
ROOT ZeroOut_JNT
{
  OFFSET 0 0 0
  CHANNELS 6 Xposition Yposition Zposition Zrotation Xrotation Yrotation
  JOINT SpineFinal_1_JNT
  {
    OFFSET 0 59.8141 -42.9993
    CHANNELS 6 Xposition Yposition Zposition Zrotation Xrotation Yrotation
    JOINT l_legIKClavicle_Root_JNT
    {
      OFFSET -0.323145 -1.55994 9.59625
      CHANNELS 6 Xposition Yposition Zposition Zrotation Xrotation Yrotation
      JOINT l_legBlendRoot_JNT
      {
        OFFSET 16.1374 0 0
        CHANNELS 6 Xposition Yposition Zposition Zrotation Xrotation Yrotation
        JOINT l_legBlendMiddle_JNT
        {
          OFFSET 27.0969 0 0
          CHANNELS 6 Xposition Yposition Zposition Zrotation Xrotation Yrotation
          JOINT l_legBlendEnd_JNT
          {
            OFFSET 24.8414 0 0
            CHANNELS 6 Xposition Yposition Zposition Zrotation Xrotation Yrotation
            JOINT l_legBlendTip_JNT
            {
              OFFSET 6.77858 0 0
              CHANNELS 6 Xposition Yposition Zposition Zrotation Xrotation Yrotation
              End Site
              {
                OFFSET 0 0 0
              }
            }
          }
        }
      }
    }
    JOINT SpineFinal_2_JNT
    {
      OFFSET -19.5366 0.0587492 -0.00256357
      CHANNELS 6 Xposition Yposition Zposition Zrotation Xrotation Yrotation
      JOINT SpineFinal_3_JNT
      {
        OFFSET -19.4679 1.47333 -0.00136182
        CHANNELS 6 Xposition Yposition Zposition Zrotation Xrotation Yrotation
        JOINT SpineFinal_4_JNT
        {
          OFFSET -18.2335 5.20609 0
          CHANNELS 6 Xposition Yposition Zposition Zrotation Xrotation Yrotation
          JOINT SpineFinal_5_JNT
          {
            OFFSET -17.3574 8.01768 -1.82773e-005
            CHANNELS 6 Xposition Yposition Zposition Zrotation Xrotation Yrotation
            JOINT SpineFinal_6_JNT
            {
              OFFSET -19.144 8.35871 0
              CHANNELS 6 Xposition Yposition Zposition Zrotation Xrotation Yrotation
              JOINT SpineFinal_7_JNT
              {
                OFFSET -16.3943 7.24542 0
                CHANNELS 6 Xposition Yposition Zposition Zrotation Xrotation Yrotation
                JOINT SpineFinal_8_JNT
                {
                  OFFSET -19.3877 2.40349 0
                  CHANNELS 6 Xposition Yposition Zposition Zrotation Xrotation Yrotation
                  JOINT head_JNT
                  {
                    OFFSET -13.796 -11.6756 0
                    CHANNELS 6 Xposition Yposition Zposition Zrotation Xrotation Yrotation
                    JOINT l_hornRoot_JNT
                    {
                      OFFSET -15.825 14.8229 15.3879
                      CHANNELS 6 Xposition Yposition Zposition Zrotation Xrotation Yrotation
                      JOINT l_hornMid_JNT
                      {
                        OFFSET 6.55118 0 0
                        CHANNELS 6 Xposition Yposition Zposition Zrotation Xrotation Yrotation
                        JOINT l_hornEnd_JNT
                        {
                          OFFSET 6.73503 0 0
                          CHANNELS 6 Xposition Yposition Zposition Zrotation Xrotation Yrotation
                          End Site
                          {
                            OFFSET 0 0 0
                          }
                        }
                      }
                    }
                    JOINT headJend_JNT
                    {
                      OFFSET 1.34858 -27.5886 0
                      CHANNELS 6 Xposition Yposition Zposition Zrotation Xrotation Yrotation
                      End Site
                      {
                        OFFSET 0 0 0
                      }
                    }
                    JOINT r_hornRoot_JNT
                    {
                      OFFSET -15.825 14.8229 -15.3879
                      CHANNELS 6 Xposition Yposition Zposition Zrotation Xrotation Yrotation
                      JOINT r_hornMid_JNT
                      {
                        OFFSET -2.40814 5.46468 -2.69372
                        CHANNELS 6 Xposition Yposition Zposition Zrotation Xrotation Yrotation
                        JOINT r_hornEnd_JNT
                        {
                          OFFSET -2.40922 6.0083 -1.85921
                          CHANNELS 6 Xposition Yposition Zposition Zrotation Xrotation Yrotation
                          End Site
                          {
                            OFFSET 0 0 0
                          }
                        }
                      }
                    }
                    JOINT m_upLip_JNT
                    {
                      OFFSET 4.72477 -9.87974 0
                      CHANNELS 6 Xposition Yposition Zposition Zrotation Xrotation Yrotation
                      JOINT l_lipUpRoot_JNT
                      {
                        OFFSET 2.68891 -0.690234 4.02874
                        CHANNELS 6 Xposition Yposition Zposition Zrotation Xrotation Yrotation
                        JOINT l_lipUpEnd_JNT
                        {
                          OFFSET 0 0 -14.9226
                          CHANNELS 6 Xposition Yposition Zposition Zrotation Xrotation Yrotation
                          End Site
                          {
                            OFFSET 0 0 0
                          }
                        }
                      }
                      JOINT m_upLipRoot_JNT
                      {
                        OFFSET 0 0 3.94939
                        CHANNELS 6 Xposition Yposition Zposition Zrotation Xrotation Yrotation
                        JOINT m_upLipEnd_JNT
                        {
                          OFFSET 0 0 15.0019
                          CHANNELS 6 Xposition Yposition Zposition Zrotation Xrotation Yrotation
                          End Site
                          {
                            OFFSET 0 0 0
                          }
                        }
                      }
                      JOINT r_lipUpRoot_JNT
                      {
                        OFFSET -2.689 -0.690236 4.02875
                        CHANNELS 6 Xposition Yposition Zposition Zrotation Xrotation Yrotation
                        JOINT r_lipUpEnd_JNT
                        {
                          OFFSET 9.35075e-005 -0.000392738 14.9226
                          CHANNELS 6 Xposition Yposition Zposition Zrotation Xrotation Yrotation
                          End Site
                          {
                            OFFSET 0 0 0
                          }
                        }
                      }
                    }
                    JOINT m_DnLip_JNT
                    {
                      OFFSET 6.0207 -9.81639 0
                      CHANNELS 6 Xposition Yposition Zposition Zrotation Xrotation Yrotation
                      JOINT l_lipDn_JNT
                      {
                        OFFSET 2.71301 -0.162748 3.99146
                        CHANNELS 6 Xposition Yposition Zposition Zrotation Xrotation Yrotation
                        JOINT l_lipEnd_JNT
                        {
                          OFFSET 0 0 -14.9599
                          CHANNELS 6 Xposition Yposition Zposition Zrotation Xrotation Yrotation
                          End Site
                          {
                            OFFSET 0 0 0
                          }
                        }
                      }
                      JOINT m_dnLip_JNT
                      {
                        OFFSET 0 -0.0431035 3.99141
                        CHANNELS 6 Xposition Yposition Zposition Zrotation Xrotation Yrotation
                        JOINT m_dnLipEnd_JNT
                        {
                          OFFSET 0 0 14.9599
                          CHANNELS 6 Xposition Yposition Zposition Zrotation Xrotation Yrotation
                          End Site
                          {
                            OFFSET 0 0 0
                          }
                        }
                      }
                      JOINT r_lipDn_JNT
                      {
                        OFFSET -2.71301 -0.162761 3.99141
                        CHANNELS 6 Xposition Yposition Zposition Zrotation Xrotation Yrotation
                        JOINT r_lipDnEnd_JNT
                        {
                          OFFSET 0 0 14.9599
                          CHANNELS 6 Xposition Yposition Zposition Zrotation Xrotation Yrotation
                          End Site
                          {
                            OFFSET 0 0 0
                          }
                        }
                      }
                    }
                    JOINT l_lid_JNT
                    {
                      OFFSET -7.85698 -6.72885 9.63956
                      CHANNELS 6 Xposition Yposition Zposition Zrotation Xrotation Yrotation
                      End Site
                      {
                        OFFSET 0 0 0
                      }
                    }
                    JOINT r_lid_JNT
                    {
                      OFFSET -7.85684 -6.72882 -9.63956
                      CHANNELS 6 Xposition Yposition Zposition Zrotation Xrotation Yrotation
                      End Site
                      {
                        OFFSET 0 0 0
                      }
                    }
                  }
                }
              }
            }
            JOINT l_FwClavicleRoot_JNT
            {
              OFFSET -0.15532 -4.55898 6.72563
              CHANNELS 6 Xposition Yposition Zposition Zrotation Xrotation Yrotation
              JOINT l_FwLegBlendRoot_JNT
              {
                OFFSET 21.051 0 0
                CHANNELS 6 Xposition Yposition Zposition Zrotation Xrotation Yrotation
                JOINT l_FwLegBlendMiddle_JNT
                {
                  OFFSET 33.1145 0 0
                  CHANNELS 6 Xposition Yposition Zposition Zrotation Xrotation Yrotation
                  JOINT l_FwLegBlendTip_JNT
                  {
                    OFFSET 29.9221 0 0
                    CHANNELS 6 Xposition Yposition Zposition Zrotation Xrotation Yrotation
                    JOINT l_FwLegBlendEnd_JNT
                    {
                      OFFSET 9.62649 0 0
                      CHANNELS 6 Xposition Yposition Zposition Zrotation Xrotation Yrotation
                      End Site
                      {
                        OFFSET 0 0 0
                      }
                    }
                  }
                }
              }
            }
            JOINT r_FwClavicleRoot_JNT
            {
              OFFSET -0.15532 -4.55898 -6.72563
              CHANNELS 6 Xposition Yposition Zposition Zrotation Xrotation Yrotation
              JOINT r_FwLegBlendRoot_JNT
              {
                OFFSET 1.1653 -12.7157 -16.7361
                CHANNELS 6 Xposition Yposition Zposition Zrotation Xrotation Yrotation
                JOINT r_FwLegBlendMiddle_JNT
                {
                  OFFSET 16.2308 -5.97551 28.2387
                  CHANNELS 6 Xposition Yposition Zposition Zrotation Xrotation Yrotation
                  JOINT r_FwLegBlendTip_JNT
                  {
                    OFFSET 26.7017 -9.19239 -9.89204
                    CHANNELS 6 Xposition Yposition Zposition Zrotation Xrotation Yrotation
                    JOINT r_FwLegBlendEnd_JNT
                    {
                      OFFSET 4.44874 -7.74942 3.58114
                      CHANNELS 6 Xposition Yposition Zposition Zrotation Xrotation Yrotation
                      End Site
                      {
                        OFFSET 0 0 0
                      }
                    }
                  }
                }
              }
            }
          }
        }
      }
    }
    JOINT r_legIKClavicle_Root_JNT
    {
      OFFSET -0.323145 -1.55994 -9.59625
      CHANNELS 6 Xposition Yposition Zposition Zrotation Xrotation Yrotation
      JOINT r_legBlendRoot_JNT
      {
        OFFSET 13.2848 -5.74129 -7.13912
        CHANNELS 6 Xposition Yposition Zposition Zrotation Xrotation Yrotation
        JOINT r_legBlendMiddle_JNT
        {
          OFFSET 14.815 16.9375 15.0957
          CHANNELS 6 Xposition Yposition Zposition Zrotation Xrotation Yrotation
          JOINT r_legBlendEnd_JNT
          {
            OFFSET 23.6904 -6.58016 -3.54465
            CHANNELS 6 Xposition Yposition Zposition Zrotation Xrotation Yrotation
            JOINT r_legBlendTip_JNT
            {
              OFFSET 1.47758 -6.16068 -2.41079
              CHANNELS 6 Xposition Yposition Zposition Zrotation Xrotation Yrotation
              End Site
              {
                OFFSET 0 0 0
              }
            }
          }
        }
      }
    }
    JOINT tailRoot_JNT
    {
      OFFSET 2.82533 14.5514 0
      CHANNELS 6 Xposition Yposition Zposition Zrotation Xrotation Yrotation
      JOINT tailMid_JNT
      {
        OFFSET 7.87756 0 0
        CHANNELS 6 Xposition Yposition Zposition Zrotation Xrotation Yrotation
        JOINT tailEnd_JNT
        {
          OFFSET 6.52588 0 0
          CHANNELS 6 Xposition Yposition Zposition Zrotation Xrotation Yrotation
          End Site
          {
            OFFSET 0 0 0
          }
        }
      }
    }
    JOINT l_shoulderBkRoot_JNT
    {
      OFFSET -9.30511 7.998 11.2048
      CHANNELS 6 Xposition Yposition Zposition Zrotation Xrotation Yrotation
      JOINT l_shoulderBkMid_JNT
      {
        OFFSET 0 0 0
        CHANNELS 6 Xposition Yposition Zposition Zrotation Xrotation Yrotation
        End Site
        {
          OFFSET 0 0 0
        }
      }
    }
    JOINT r_shoulderBkRoot_JNT
    {
      OFFSET -9.30514 7.99801 -11.2048
      CHANNELS 6 Xposition Yposition Zposition Zrotation Xrotation Yrotation
      JOINT r_shoulderBkMid_JNT
      {
        OFFSET 0 0 0
        CHANNELS 6 Xposition Yposition Zposition Zrotation Xrotation Yrotation
        End Site
        {
          OFFSET 0 0 0
        }
      }
    }
  }
}
MOTION
Frames:	3
Frame Time:	0.0416667
0 0 0 0 0 -0 3.14341e-015 63.9334 -43.0028 0.534987 5.53655 89.942 -0.323145 -1.55994 9.59625 -26.4062 61.2999 -67.9538 16.1374 -6.36432e-007 1.6858e-006 -27.6019 10.2142 47.2615 27.0969 -3.55271e-015 -2.84217e-014 4.85497e-015 2.19906e-015 -53.6751 24.8414 -3.55271e-015 -7.10543e-015 0.1448 0.117025 -50.6426 6.77858 -7.10543e-015 -1.06581e-014 -4.7394e-023 -2.84364e-022 -0 -19.533 -0.0634431 0.000488822 0.328786 0.143148 0.00149753 -19.3615 1.8275 0.000460946 -2.06205 0.0634723 0.000747097 -18.2589 5.55748 -8.05157e-007 -15.663 0.000150239 -4.94569e-005 -17.9347 7.22118 -3.29906e-006 -16.372 -0.000198522 -1.39187e-005 -19.144 8.35871 -2.08167e-014 -21.4233 -4.50372e-016 -1.12313e-014 -16.3943 7.24542 2.60347e-014 -22.7196 6.15611e-015 -1.2803e-014 -19.3877 2.40349 -3.46945e-014 -5.01371 9.08197e-015 -1.30157e-014 -13.796 -11.6756 2.81997e-014 -2.39048 0 -5.35787e-017 -15.825 14.8229 15.3879 112.717 -2.35881 -24.301 6.55118 1.42109e-013 0 49.8267 -3.33995 7.13195 6.73503 2.84217e-014 -5.32907e-014 3.18055e-015 3.18055e-015 -3.97569e-016 1.34858 -27.5886 -1.32672e-014 92.7985 1.31897e-014 -1.65116e-014 -15.825 14.8229 -15.3879 -7.95139e-015 1.57164e-015 7.84423e-015 -2.40814 5.46468 -2.69372 11.4908 -6.96839 6.95568 -2.40922 6.0083 -1.85921 -3.18055e-015 0 7.95139e-016 4.72477 -9.87974 -2.77556e-016 92.7985 3.50417e-015 -90 2.68891 -0.690234 4.02874 -180 7.01671e-015 -180 -4.44089e-016 2.84217e-014 -14.9226 8.38623e-017 3.18055e-015 3.72721e-017 5.55112e-017 0 3.94939 2.01891e-017 1.59028e-015 -0 -1.11022e-016 0 15.0019 -3.10601e-017 1.59028e-015 -2.48481e-017 -2.689 -0.690236 4.02875 2.01891e-017 1.59028e-015 -0 9.35075e-005 -0.000392738 14.9226 -3.10601e-017 1.59028e-015 -2.48481e-017 6.0207 -9.81639 -2.22045e-016 92.7985 3.50417e-015 -90 2.71301 -0.162748 3.99146 -180 7.01671e-015 -180 -4.44089e-016 0 -14.9599 8.38623e-017 3.18055e-015 3.72721e-017 1.11022e-016 -0.0431035 3.99141 2.01891e-017 1.59028e-015 -0 -5.55112e-017 0 14.9599 -3.10601e-017 1.59028e-015 -2.48481e-017 -2.71301 -0.162761 3.99141 2.01891e-017 1.59028e-015 -0 -4.44089e-016 -2.84217e-014 14.9599 -3.10601e-017 1.59028e-015 -2.48481e-017 -7.85698 -6.72885 9.63956 34.106 19.9417 85.9622 -7.85684 -6.72882 -9.63956 -145.894 19.9417 85.9622 0.518472 -4.44347 6.72563 43.174 26.2605 -112.654 21.051 -2.0897e-008 -1.13654e-007 67.943 -60.1074 133.875 33.1145 8.3753e-007 -2.8019e-007 120.277 7.01671e-015 180 29.9221 4.26326e-014 1.77636e-014 28.1599 1.35422e-015 4.6528e-015 9.62649 2.13163e-014 1.42109e-014 29.859 -1.7467e-015 90 0.406132 -4.47927 -6.72563 -33.7986 9.37258 -17.9831 1.1653 -12.7157 -16.7361 73.3673 -60.7013 134.751 16.2308 -5.97551 28.2387 141.822 6.27469 161.374 26.7017 -9.19239 -9.89204 40.6107 10.2383 5.95158 4.44874 -7.74942 3.58114 29.859 -1.7467e-015 90 -0.323145 -1.55994 -9.59625 -62.7106 -9.24999 4.74057 13.2848 -5.74129 -7.13912 -24.4817 10.3168 45.8072 14.815 16.9375 15.0957 -0.763816 0.77822 -54.0423 23.6904 -6.58016 -3.54465 0.00859955 0.0798206 -50.1585 1.47758 -6.16068 -2.41079 0 0 -1.78906e-015 2.82533 14.5514 -1.53211e-014 9.26299 -4.06887e-016 -5.16219e-015 7.87756 0 -5.44009e-015 21.8963 -1.61513e-015 8.88319e-016 6.52588 2.13163e-014 -1.66533e-015 0.147725 4.34841e-017 -0 -9.30511 7.998 11.2048 -6.8505 -4.18474e-016 -90 0 0 0 -1.06769e-017 0 -0 -9.30514 7.99801 -11.2048 173.149 4.18474e-016 -90 0 0 0 2.32951e-018 0 -0 
0 0 0 0 0 -0 -1.22327e-016 64.0226 -43 0.163589 6.44441 89.9797 -0.323145 -1.55994 9.59625 -26.4062 61.2999 -67.9538 16.1374 -6.32415e-007 1.68252e-006 -27.1191 10.3333 46.0972 27.0969 3.55271e-015 0 5.00183e-015 2.24565e-015 -53.9795 24.8414 1.06581e-014 2.84217e-014 0.0441627 0.0362998 -50.1689 6.77858 -7.10543e-015 -1.42109e-014 -7.58303e-022 -3.79152e-022 -1.27222e-014 -19.5397 0 -2.9976e-015 -7.78744e-037 -1.43653e-017 -3.10601e-018 -19.4076 1.98539 -3.91354e-015 -4.662 0.0194031 0.00110941 -18.5401 5.80111 5.88418e-015 -16.8791 4.38542e-005 -1.49943e-005 -18.018 7.25644 -4.88498e-015 -19.8773 -5.83005e-005 -7.69181e-006 -19.144 8.35871 -2.8838e-014 -22.9955 -9.31803e-017 -1.12546e-014 -16.3943 7.24542 1.55709e-014 -23.5581 6.29278e-015 -1.27079e-014 -19.3877 2.40349 -4.69347e-014 -6.50201 9.41742e-015 -1.27675e-014 -13.796 -11.6756 2.31204e-014 -0 0 1.97038e-017 -15.825 14.8229 15.3879 112.717 -2.35881 -24.301 6.55118 1.98952e-013 1.77636e-015 33.1092 -5.25334 5.87038 6.73503 2.84217e-014 -4.9738e-014 -8.82781e-032 -3.18055e-015 -1.59028e-015 1.34858 -27.5886 -1.34337e-014 92.7985 1.31885e-014 -1.65364e-014 -15.825 14.8229 -15.3879 3.57812e-015 -2.2267e-014 -2.70386e-014 -2.40814 5.46468 -2.69372 -4.69564 -7.57497 0.0414462 -2.40922 6.0083 -1.85921 2.75869e-033 1.59028e-015 -9.93923e-017 4.72477 -9.87974 5.60663e-015 92.7985 3.50417e-015 -90 2.68891 -0.690234 4.02874 -180 7.01671e-015 -180 0 -2.84217e-014 -14.9226 4.05723e-017 7.95139e-016 3.10601e-018 1.36002e-015 2.84217e-014 3.94939 1.04828e-017 1.59028e-015 -3.10601e-018 -2.77556e-017 -2.84217e-014 15.0019 -3.8631e-017 7.95139e-016 -0 -2.689 -0.690236 4.02875 1.04828e-017 1.59028e-015 -3.10601e-018 9.35075e-005 -0.000392738 14.9226 -3.8631e-017 7.95139e-016 -0 6.0207 -9.81639 6.35603e-015 92.7985 3.50417e-015 -90 2.71301 -0.162748 3.99146 -180 7.01671e-015 -180 4.44089e-016 5.68434e-014 -14.9599 4.05723e-017 7.95139e-016 3.10601e-018 1.30451e-015 -0.0431035 3.99141 1.04828e-017 1.59028e-015 -3.10601e-018 -2.77556e-017 -2.84217e-014 14.9599 -3.8631e-017 7.95139e-016 -0 -2.71301 -0.162761 3.99141 1.04828e-017 1.59028e-015 -3.10601e-018 4.44089e-016 -2.84217e-014 14.9599 -3.8631e-017 7.95139e-016 -0 -7.85698 -6.72885 9.63956 34.106 19.9417 85.9622 -7.85684 -6.72882 -9.63956 -145.894 19.9417 85.9622 0.43207 -4.54112 6.72563 46.7433 26.2605 -112.654 21.051 4.13067e-010 2.27599e-009 69.3756 -60.8261 135.121 33.1145 8.3753e-007 -2.8019e-007 133.289 7.01671e-015 180 29.9221 -1.42109e-014 0 36.5646 2.01735e-015 4.40122e-015 9.62649 1.77636e-014 7.10543e-015 29.859 -1.7467e-015 90 0.43207 -4.54112 -6.72563 -29.1534 9.37258 -17.9831 1.1653 -12.7157 -16.7361 72.1915 -61.2783 135.926 16.2308 -5.97551 28.2387 140.926 2.30025 173.299 26.7017 -9.19239 -9.89204 41.079 3.60895 2.075 4.44874 -7.74942 3.58114 29.859 -1.7467e-015 90 -0.323145 -1.55994 -9.59625 -62.7106 -9.24999 4.74057 13.2848 -5.74129 -7.13912 -26.133 10.3606 45.6136 14.815 16.9375 15.0957 -0.268004 0.27308 -54.0469 23.6904 -6.58016 -3.54465 0.0248528 0.0275663 -50.0384 1.47758 -6.16068 -2.41079 -3.97569e-016 7.95139e-016 -9.93923e-017 2.82533 14.5514 2.30371e-015 6.32639 -1.19581e-016 -5.23363e-015 7.87756 -2.84217e-014 -4.66294e-015 19.9887 -1.69588e-015 8.04457e-016 6.52588 0 1.7486e-015 -6.36111e-015 -6.21202e-018 1.86361e-017 -9.30511 7.998 11.2048 -6.8505 -4.18474e-016 -90 0 0 0 -3.52823e-017 4.96962e-017 -3.10601e-018 -9.30514 7.99801 -11.2048 173.149 4.18474e-016 -90 0 0 0 -9.60922e-018 -4.96962e-017 3.10601e-018 
0 0 0 0 0 -0 -1.22327e-016 64.0798 -43 -6.60124e-017 6.83813 90 -0.323145 -1.55994 9.59625 -26.4062 61.2999 -67.9538 16.1374 -6.32606e-007 1.68261e-006 -26.9057 10.3846 45.3457 27.0969 3.55271e-015 -2.84217e-014 4.98513e-015 2.22778e-015 -53.6768 24.8414 3.55271e-015 0 6.99409e-015 9.41297e-016 -50.1512 6.77858 -7.10543e-015 -1.06581e-014 3.79152e-022 0 -6.36111e-015 -19.5397 2.13163e-014 -7.32498e-015 -1.70017e-065 -1.10348e-032 -8.82781e-032 -19.4076 1.98539 -8.19514e-015 -5.84101 8.13814e-032 -2.2414e-016 -18.5401 5.80111 1.91992e-015 -17.3747 -2.54444e-014 -1.16499e-014 -18.018 7.25644 -7.90087e-015 -22.4917 7.64385e-017 -7.88484e-015 -19.144 8.35871 -3.05893e-014 -23.5872 -7.06225e-030 -1.12214e-014 -16.3943 7.24542 1.57147e-014 -23.8429 6.36111e-015 -1.26869e-014 -19.3877 2.40349 -4.62224e-014 -7.06692 9.54166e-015 -1.2707e-014 -13.796 -11.6756 2.10241e-014 1.76275 -1.69494e-029 -1.21824e-029 -15.825 14.8229 15.3879 112.717 -2.35881 -24.301 6.55118 1.42109e-013 1.77636e-014 -9.54852 -7.83375 0.77351 6.73503 5.68434e-014 -4.9738e-014 8.82781e-032 -7.95139e-016 6.36111e-015 1.34858 -27.5886 -1.33918e-014 92.7985 1.31729e-014 -1.65353e-014 -15.825 14.8229 -15.3879 -8.34896e-015 -1.74931e-014 -2.70347e-014 -2.40814 5.46468 -2.69372 -44.8341 -0.805227 -15.7514 -2.40922 6.0083 -1.85921 6.36111e-015 1.59028e-015 3.18055e-015 4.72477 -9.87974 3.3314e-015 92.7985 3.50417e-015 -90 2.68891 -0.690234 4.02874 180 7.01671e-015 -180 0 0 -14.9226 1.03285e-029 0 5.6498e-030 4.78312e-016 2.84217e-014 3.94939 -1.8097e-029 0 -5.6498e-030 0 0 15.0019 -1.8097e-029 0 -5.6498e-030 -2.689 -0.690236 4.02875 -1.8097e-029 0 -5.6498e-030 9.35075e-005 -0.000392738 14.9226 -1.8097e-029 0 -5.6498e-030 6.0207 -9.81639 4.08905e-015 92.7985 3.50417e-015 -90 2.71301 -0.162748 3.99146 180 7.01671e-015 -180 0 2.84217e-014 -14.9599 1.03285e-029 0 5.6498e-030 4.99e-016 -0.0431035 3.99141 -1.8097e-029 0 -5.6498e-030 -2.52435e-029 -2.84217e-014 14.9599 -1.8097e-029 0 -5.6498e-030 -2.71301 -0.162761 3.99141 -1.8097e-029 0 -5.6498e-030 0 -2.84217e-014 14.9599 -1.8097e-029 0 -5.6498e-030 -7.85698 -6.72885 9.63956 34.106 19.9417 85.9622 -7.85684 -6.72882 -9.63956 -145.894 19.9417 85.9622 0.477051 -4.53662 6.72563 49.332 26.2605 -112.654 21.051 1.79145e-009 9.78481e-009 71.694 -61.8942 137.156 33.1145 8.3753e-007 -2.8019e-007 141.314 7.01671e-015 180 29.9221 -2.13163e-014 -3.55271e-015 41.4144 2.41509e-015 4.22997e-015 9.62649 2.13163e-014 7.10543e-015 29.859 -1.7467e-015 90 0.477051 -4.53662 -6.72563 -26.0758 9.37258 -17.9831 1.1653 -12.7157 -16.7361 71.1787 -61.7859 136.938 16.2308 -5.97551 28.2387 140.792 -0.169855 -179.507 26.7017 -9.19239 -9.89204 41.1441 -0.234202 -0.13445 4.44874 -7.74942 3.58114 29.859 -8.08068e-015 90 -0.323145 -1.55994 -9.59625 -62.7106 -9.24999 4.74057 13.2848 -5.74129 -7.13912 -27.1011 10.3845 45.573 14.815 16.9375 15.0957 0.259664 -0.264583 -54.0469 23.6904 -6.58016 -3.54465 -0.1633 -0.0244335 -49.9861 1.47758 -6.16068 -2.41079 1.19271e-015 -7.95139e-016 1.54058e-015 2.82533 14.5514 1.04097e-015 4.99157 9.93129e-031 -5.22158e-015 7.87756 -4.26326e-014 -3.84139e-015 19.1217 -1.67259e-015 7.66947e-016 6.52588 7.10543e-015 2.11278e-015 -1.74098e-062 7.06225e-031 1.41245e-030 -9.30511 7.998 11.2048 -6.8505 -4.18474e-016 -90 0 0 0 6.72431e-033 0 7.06225e-031 -9.30514 7.99801 -11.2048 173.149 4.18474e-016 -90 0 0 0 -1.74848e-031 0 -0 
